<svg width="50" height="50" viewBox="0 0 50 50" fill="none" xmlns="http://www.w3.org/2000/svg">
<path d="M7.32422 50H42.6758C46.7144 50 50 46.7144 50 42.6758V7.32422C50 3.2856 46.7144 0 42.6758 0H7.32422C3.2856 0 0 3.2856 0 7.32422V42.6758C0 46.7144 3.2856 50 7.32422 50ZM2.92969 7.32422C2.92969 4.90112 4.90112 2.92969 7.32422 2.92969H42.6758C45.0989 2.92969 47.0703 4.90112 47.0703 7.32422V42.6758C47.0703 45.0989 45.0989 47.0703 42.6758 47.0703H7.32422C4.90112 47.0703 2.92969 45.0989 2.92969 42.6758V7.32422Z" fill="#0F1528"/>
<path d="M25 38.1836C32.2693 38.1836 38.1836 32.2693 38.1836 25C38.1836 17.7307 32.2693 11.8164 25 11.8164C17.7307 11.8164 11.8164 17.7307 11.8164 25C11.8164 32.2693 17.7307 38.1836 25 38.1836ZM25 14.7461C30.6541 14.7461 35.2539 19.3459 35.2539 25C35.2539 30.6541 30.6541 35.2539 25 35.2539C19.3459 35.2539 14.7461 30.6541 14.7461 25C14.7461 19.3459 19.3459 14.7461 25 14.7461Z" fill="#0F1528"/>
<path d="M39.6484 14.7461C42.0715 14.7461 44.043 12.7747 44.043 10.3516C44.043 7.92847 42.0715 5.95703 39.6484 5.95703C37.2253 5.95703 35.2539 7.92847 35.2539 10.3516C35.2539 12.7747 37.2253 14.7461 39.6484 14.7461ZM39.6484 8.88672C40.456 8.88672 41.1133 9.54399 41.1133 10.3516C41.1133 11.1591 40.456 11.8164 39.6484 11.8164C38.8409 11.8164 38.1836 11.1591 38.1836 10.3516C38.1836 9.54399 38.8409 8.88672 39.6484 8.88672Z" fill="#0F1528"/>
</svg>
