<svg width="50" height="50" viewBox="0 0 50 50" fill="none" xmlns="http://www.w3.org/2000/svg">
<path d="M46.9284 26.4038C46.9578 25.9369 46.9727 25.4669 46.9727 25C46.9727 12.8304 37.1159 2.92969 25 2.92969C24.5327 2.92969 24.062 2.94456 23.5947 2.97394C21.0556 1.05209 17.9024 0 14.6484 0C6.5712 0 0 6.61507 0 14.7461C0 17.9409 1.05209 21.0598 2.97394 23.5947C2.94456 24.062 2.92969 24.5327 2.92969 25C2.92969 37.1464 12.8548 47.0703 25 47.0703C25.4673 47.0703 25.938 47.0554 26.4053 47.0261C28.9402 48.9479 32.0591 50 35.2539 50C43.3525 50 50 43.3506 50 35.2539C50 32.1251 48.9132 29.0051 46.9284 26.4038ZM35.2539 47.0703C30.3974 47.0703 27.5684 44.1475 27.3331 44.009C26.9341 44.0388 26.1585 44.1406 25 44.1406C14.4459 44.1406 5.85938 35.5541 5.85938 25C5.85938 23.838 5.96199 23.0556 5.99136 22.6673C5.85556 22.4369 2.92969 19.6049 2.92969 14.7461C2.92969 8.23059 8.18672 2.92969 14.6484 2.92969C19.6281 2.92969 22.4323 5.85403 22.6669 5.99098C23.0545 5.96199 23.8388 5.85938 25 5.85938C35.5003 5.85938 44.043 14.4459 44.043 25C44.043 26.162 43.9404 26.9444 43.911 27.3327C44.0475 27.5608 47.0703 30.537 47.0703 35.2539C47.0703 41.7694 41.7694 47.0703 35.2539 47.0703Z" fill="#0F1528"/>
<path d="M25 20.6051C23.5531 20.6051 22.1416 20.2396 21.2238 19.627C20.9366 19.4351 20.7455 19.2646 20.6276 19.1402C20.7455 19.0155 20.9373 18.8446 21.2254 18.6523C23.8197 16.9212 28.3737 17.9161 29.3396 19.104C30.8365 20.9457 32.4219 20.562 32.8327 20.6051C34.494 20.6051 35.9756 19.6732 36.6993 18.1728C37.4191 16.6809 37.2284 14.9517 36.2011 13.6604C31.7383 8.04749 21.7167 7.69081 16.251 11.3411C13.3705 13.2599 11.7188 16.1026 11.7188 19.1402C11.7188 22.1779 13.3701 25.0202 16.2479 26.9371C18.5856 28.4985 21.7754 29.3942 25 29.3942C26.4469 29.3942 27.8584 29.7596 28.7762 30.3722C29.0684 30.5676 29.2419 30.7438 29.3327 30.859C29.2419 30.9742 29.068 31.1512 28.7746 31.3469C26.2257 33.0471 21.5694 32.1335 20.5631 30.8949C18.8572 28.7964 14.7057 28.7121 13.203 31.8264C12.4836 33.3179 12.6743 35.0472 13.7012 36.3388C16.3181 39.6301 20.8275 41.1129 25 41.1129C28.2085 41.1129 31.2817 40.2409 33.6514 38.6585C36.5318 36.7394 38.1836 33.8966 38.1836 30.859C38.1836 25.5405 32.917 20.6051 25 20.6051ZM32.0255 36.2209C30.1311 37.4863 27.636 38.1832 25 38.1832C21.7167 38.1832 18.0286 37.0739 15.9943 34.5158C15.5247 33.9253 15.7314 33.3286 15.8417 33.0994C16.3773 31.9893 17.8974 32.2605 18.2896 32.7431C20.3438 35.2707 26.7075 36.248 30.4012 33.7837C31.6414 32.9556 32.3242 31.9168 32.3242 30.859C32.3242 29.8008 31.6418 28.7624 30.4024 27.9354C29.0016 27.0004 27.0329 26.4645 25 26.4645C22.34 26.4645 19.7433 25.7488 17.8738 24.4999C15.8241 23.1346 14.6484 21.1811 14.6484 19.1402C14.6484 17.0994 15.8245 15.1455 17.8768 13.7783C22.131 10.9375 30.452 11.137 33.9081 15.4835C34.3777 16.0744 34.1713 16.6706 34.0607 16.8999C33.9729 17.0818 33.625 17.6754 32.8327 17.6754C32.1098 17.6445 32.0103 17.7452 31.6128 17.2565C29.5933 14.7717 23.3383 13.7211 19.5988 16.2155C18.6771 16.8312 17.5781 17.8383 17.5781 19.1402C17.5781 20.443 18.6764 21.4493 19.5976 22.0638C20.9984 22.9988 22.9671 23.5348 25 23.5348C27.636 23.5348 30.1315 24.2321 32.0286 25.4993C34.0782 26.8646 35.2539 28.8181 35.2539 30.859C35.2539 32.8999 34.0778 34.8537 32.0255 36.2209Z" fill="#0F1528"/>
</svg>
