<svg width="50" height="50" viewBox="0 0 50 50" fill="none" xmlns="http://www.w3.org/2000/svg">
<path d="M24.9995 0C11.2147 0 0 11.2149 0 25C0 38.7851 11.2147 50 24.9995 50C28.5136 50 31.9127 49.2847 35.1024 47.8743C35.9659 47.4924 36.3563 46.4828 35.9745 45.6191C35.5924 44.7555 34.5825 44.3655 33.7193 44.7471C30.9682 45.9637 28.0343 46.5807 24.9995 46.5807C13.1002 46.5807 3.41927 36.8997 3.41927 25C3.41927 13.1003 13.1002 3.41927 24.9995 3.41927C36.8992 3.41927 46.5804 13.1003 46.5804 25C46.5804 27.255 46.2343 29.4766 45.5521 31.6029C44.0825 36.1813 41.6679 37.5941 40.4927 37.4113C39.3658 37.2348 39.2783 35.5495 39.2783 35.0373V14.7322C39.2783 13.7881 38.5128 13.0226 37.5686 13.0226C36.6244 13.0226 35.859 13.7881 35.859 14.7322V15.7383C33.2381 12.6693 29.3423 10.7211 24.9997 10.7211C17.1264 10.7211 10.7208 17.1267 10.7208 25C10.7208 32.8733 17.1264 39.2789 24.9997 39.2789C29.3423 39.2789 33.2381 37.3307 35.859 34.2617V35.0373C35.859 38.1412 37.4702 40.399 39.964 40.7896C42.9151 41.2506 46.7966 38.9141 48.8078 32.6478C49.5987 30.1833 49.9997 27.6101 49.9997 25C49.9995 11.2149 38.7846 0 24.9995 0ZM24.9995 35.8596C19.0116 35.8596 14.1399 30.9879 14.1399 25C14.1399 19.0121 19.0116 14.1404 24.9995 14.1404C30.9873 14.1404 35.8588 19.0121 35.8588 25C35.8588 30.9879 30.9873 35.8596 24.9995 35.8596Z" fill="#0F1528"/>
</svg>
