<svg width="50" height="50" viewBox="0 0 50 50" fill="none" xmlns="http://www.w3.org/2000/svg">
<path d="M12.093 46.4321C15.9561 48.7568 20.3732 49.9821 24.9115 49.9821C38.6639 49.9821 50 38.76 50 24.9908C50 11.2377 38.6799 0 24.9115 0C11.1851 0 0.0179291 11.211 0.0179291 24.9908C0.0179291 29.5898 1.24359 34.0405 3.56789 37.9066L0 50L12.093 46.4321ZM2.94685 24.9908C2.94685 12.8258 12.8002 2.92854 24.9115 2.92854C37.1304 2.92854 47.0715 12.8258 47.0715 24.9908C47.0715 37.1563 37.1304 47.0531 24.9115 47.0531C20.7069 47.0531 16.621 45.8622 13.0966 43.6085L12.5336 43.2487L4.33159 45.6688L6.75125 37.4664L6.39153 36.9038C4.1378 33.3786 2.94685 29.2595 2.94685 24.9908V24.9908Z" fill="#0F1528"/>
<path d="M12.1701 20.3866C12.6538 22.9268 14.0896 27.8127 18.2701 31.9932C22.4507 36.1737 27.3365 37.61 29.8771 38.0937C32.7862 38.6476 37.0552 38.7311 39.1415 36.6448L40.3046 35.4817C40.8917 34.8947 41.2152 34.1138 41.2152 33.2833C41.2152 32.4529 40.8917 31.6724 40.3046 31.0853L35.6533 26.434C35.0659 25.8466 34.2854 25.5235 33.4549 25.5235C32.6245 25.5235 31.844 25.8466 31.2565 26.434L30.0938 27.5968C29.3835 28.3071 28.0426 28.3101 27.327 27.6055L22.6876 22.7716C22.6807 22.7643 22.6738 22.7571 22.6666 22.7502C21.9551 22.0388 21.9551 20.881 22.6666 20.1696L23.8293 19.0068C25.0447 17.7915 25.0447 15.825 23.8293 14.61L19.178 9.95875C17.9661 8.74682 15.9939 8.74682 14.7816 9.95875L13.6189 11.1219V11.1215C11.9538 12.787 11.3987 16.3369 12.1701 20.3866V20.3866ZM15.6899 13.1929C16.9106 12 16.8454 11.9771 16.98 11.9771C17.0262 11.9771 17.0723 11.9947 17.1074 12.0298C22.0085 16.9572 21.8117 16.6677 21.8117 16.8088C21.8117 16.858 21.7938 16.9011 21.7591 16.9362L20.596 18.0989C18.7439 19.951 18.7367 22.9489 20.5841 24.8094L25.2262 29.6464C25.2335 29.6533 25.2404 29.6605 25.2476 29.6678C27.0993 31.5194 30.307 31.5255 32.1648 29.6678L33.3275 28.505C33.3977 28.4349 33.5121 28.4349 33.5823 28.505C38.4835 33.4321 38.2866 33.1426 38.2866 33.2837C38.2866 33.3333 38.2687 33.376 38.234 33.4111L37.0709 34.5738C36.274 35.3707 33.7357 35.8476 30.4249 35.217C28.2154 34.7959 23.967 33.5485 20.3411 29.9226C16.7153 26.2967 15.4679 22.0483 15.0471 19.8388C14.4162 16.528 14.893 13.9894 15.6899 13.1929V13.1929Z" fill="#0F1528"/>
</svg>
