<svg width="117" height="143" viewBox="0 0 117 143" fill="none" xmlns="http://www.w3.org/2000/svg">
<path d="M117 111.6V143H8V118.2L60.4 69.2C65.4667 64.4 68.8667 60.3333 70.6 57C72.3333 53.5333 73.2 50.0667 73.2 46.6C73.2 42.0667 71.6667 38.5333 68.6 36C65.5333 33.4667 61.0667 32.2 55.2 32.2C50 32.2 45.2 33.4 40.8 35.8C36.5333 38.0667 33 41.4 30.2 45.8L0.8 29.4C6.26667 20.3333 13.9333 13.2 23.8 8C33.6667 2.79999 45.3333 0.199991 58.8 0.199991C69.4667 0.199991 78.8667 1.93333 87 5.4C95.2667 8.86666 101.667 13.8667 106.2 20.4C110.867 26.8 113.2 34.2667 113.2 42.8C113.2 50.4 111.533 57.6 108.2 64.4C105 71.0667 98.7333 78.6667 89.4 87.2L63 111.6H117Z" fill="#1D97D5"/>
</svg>
