<svg width="116" height="143" viewBox="0 0 116 143" fill="none" xmlns="http://www.w3.org/2000/svg">
<path d="M79.6 56C91.2 58.4 100.067 63.2 106.2 70.4C112.467 77.4667 115.6 86.0667 115.6 96.2C115.6 104.467 113.333 112.133 108.8 119.2C104.4 126.267 97.6 132 88.4 136.4C79.3333 140.667 68.0667 142.8 54.6 142.8C44.7333 142.8 34.9333 141.6 25.2 139.2C15.6 136.8 7.26667 133.4 0.2 129L14.6 99.2C20.0667 102.933 26.2 105.8 33 107.8C39.9333 109.8 46.7333 110.8 53.4 110.8C60.2 110.8 65.6 109.533 69.6 107C73.6 104.467 75.6 100.867 75.6 96.2C75.6 87.1333 68.4667 82.6 54.2 82.6H37.6V57.6L62.6 30.6H7.4V-9.53674e-06H108.6V24.8L79.6 56Z" fill="#1D97D5"/>
</svg>
