<svg width="116" height="143" viewBox="0 0 116 143" fill="none" xmlns="http://www.w3.org/2000/svg">
<path d="M58.2 51C77.8 51 92.2667 55 101.6 63C111.067 71 115.8 81.6667 115.8 95C115.8 103.667 113.533 111.667 109 119C104.6 126.2 97.8 132 88.6 136.4C79.5333 140.667 68.2667 142.8 54.8 142.8C44.9333 142.8 35.1333 141.6 25.4 139.2C15.8 136.8 7.53333 133.4 0.6 129L14.8 99.2C20.4 102.933 26.5333 105.8 33.2 107.8C40 109.8 46.8 110.8 53.6 110.8C60.4 110.8 65.8 109.533 69.8 107C73.9333 104.333 76 100.667 76 96C76 91.3333 74 87.8 70 85.4C66 83 58.9333 81.8 48.8 81.8H10.8L17.8 -9.53674e-06H107V30.6H50.6L48.8 51H58.2Z" fill="#1D97D5"/>
</svg>
