<svg width="88" height="82" viewBox="0 0 88 82" fill="none" xmlns="http://www.w3.org/2000/svg">
<path d="M49.7519 9.53141C45.3442 10.348 7.27732 50.7673 7.27734 51.9922C7.27737 53.2171 34.5252 82.2047 36.128 81.7964C37.7308 81.3881 76.9998 40.9687 77.4005 40.1522C77.6076 39.7301 77.8147 39.0899 77.9665 38.5699C78.1341 37.9956 78.2201 37.4064 78.2555 36.8093C78.4844 32.948 79.3525 17.7902 79.0033 15.6556C78.6026 13.2061 77.9103 12.866 76.5991 11.5728C75.5383 10.5266 75.397 10.3481 73.3934 9.53141C71.3899 8.71472 54.1597 8.71486 49.7519 9.53141Z" fill="white"/>
<path d="M78.2005 13.6138C78.2005 13.6138 85.6985 11.3475 85.8138 7.48963C85.8696 5.62427 85.6455 4.159 84.211 2.99858C82.9612 1.98753 81.756 1.80341 80.204 2.18203C78.267 2.65458 76.5977 5.85652 76.5977 5.85652" stroke="white" stroke-width="3" stroke-linecap="round"/>
<path d="M72.7273 12.9473C72.7329 11.5942 72.2204 10.3239 71.2843 9.37011C70.3482 8.41633 69.0991 7.89502 67.7736 7.89994C66.4495 7.90558 65.2029 8.43573 64.2635 9.39268C63.8658 9.79793 63.1424 10.6733 62.7466 11.1591C62.331 11.6693 62.3998 12.4262 62.9005 12.8496C63.401 13.273 64.1439 13.203 64.5596 12.6928C65.1794 11.9321 65.6918 11.3331 65.9297 11.0905C66.4266 10.5844 67.0849 10.3039 67.7834 10.3009C67.7873 10.3009 67.7908 10.3009 67.7946 10.3009C68.4853 10.3009 69.1326 10.573 69.6181 11.0678C70.1063 11.5652 70.3738 12.2291 70.3708 12.9371C70.3678 13.6488 70.0925 14.3194 69.5958 14.8259C69.151 15.279 67.6223 16.5146 65.4321 18.0735C64.1366 15.8165 61.7337 14.2961 58.9875 14.2961H41.7341C39.4051 14.2961 37.2157 15.2202 35.5686 16.8981L1.08139 52.0376C0.384091 52.748 0 53.6927 0 54.6974C0 55.7021 0.384091 56.6469 1.08139 57.3573L24.1875 80.9001C24.9074 81.6334 25.8526 82 26.798 82C27.7435 82 28.6889 81.6333 29.4085 80.9001L63.8961 45.7609C65.5428 44.0829 66.4498 41.852 66.4498 39.4789V21.8995C66.4498 21.3807 66.3982 20.8741 66.3005 20.3842C68.7935 18.6363 70.6236 17.1741 71.262 16.5237C72.2015 15.5667 72.7218 14.2966 72.7273 12.9473ZM64.0934 39.4789C64.0934 41.2106 63.4314 42.8387 62.2299 44.0629L27.7423 79.2024C27.2219 79.7328 26.3745 79.7328 25.8539 79.2024L2.74773 55.6596C2.4956 55.4027 2.35654 55.061 2.35654 54.6974C2.35654 54.3339 2.49546 53.9923 2.74773 53.7354L37.2351 18.5962C38.437 17.3718 40.0347 16.6975 41.7341 16.6975H58.9874C60.9249 16.6975 62.6138 17.8028 63.4786 19.427C62.0868 20.366 60.5285 21.3645 58.8752 22.3463C58.8236 22.2887 58.7709 22.2317 58.7162 22.176C56.7867 20.21 53.6472 20.21 51.7177 22.176C49.7881 24.142 49.7881 27.3408 51.7177 29.3068C52.6824 30.2898 53.9498 30.7812 55.2169 30.7812C56.4841 30.7812 57.7515 30.2898 58.7162 29.3068C60.0042 27.9946 60.431 26.1335 59.9998 24.4559C61.4377 23.603 62.8185 22.7313 64.0928 21.888C64.0929 21.892 64.0932 21.8958 64.0932 21.8997V39.4789H64.0934ZM54.1647 26.2808C54.3716 26.7001 54.787 26.9421 55.2182 26.9421C55.3962 26.9421 55.577 26.9008 55.7469 26.8137C56.4375 26.4597 57.1258 26.0915 57.8071 25.7143C57.814 26.3996 57.5625 27.0871 57.0503 27.609C56.0395 28.6388 54.3952 28.6388 53.3844 27.609C52.3738 26.5791 52.3738 24.9037 53.3844 23.8738C53.8898 23.3589 54.5536 23.1015 55.2174 23.1015C55.7429 23.1015 56.2669 23.2656 56.714 23.5883C56.0471 23.9576 55.3702 24.3193 54.688 24.6691C54.1063 24.9668 53.8721 25.6886 54.1647 26.2808Z" fill="#C0579B"/>
<path d="M35.108 32.353C34.4572 32.353 33.9297 32.8904 33.9297 33.5536V58.9072C33.9297 59.5703 34.4572 60.1078 35.108 60.1078C35.7587 60.1078 36.2862 59.5703 36.2862 58.9072V33.5536C36.2862 32.8904 35.7587 32.353 35.108 32.353Z" fill="#C0579B"/>
<path d="M29.7189 42.6651C27.7895 40.6988 24.6499 40.699 22.7206 42.665C20.7911 44.631 20.7911 47.8298 22.7206 49.7958C23.6855 50.779 24.9526 51.2703 26.2199 51.2702C27.4869 51.2702 28.7544 50.7785 29.719 49.7958C30.6538 48.8434 31.1686 47.5773 31.1686 46.2304C31.1686 44.8835 30.6537 43.6173 29.7189 42.6651ZM28.0527 48.0979C27.0419 49.1278 25.3976 49.1276 24.3869 48.0979C23.3763 47.068 23.3763 45.3926 24.3869 44.3627C24.8923 43.8477 25.5561 43.5904 26.2199 43.5904C26.8837 43.5904 27.5474 43.8477 28.0528 44.3627C28.5425 44.8615 28.8121 45.5247 28.8121 46.2303C28.8119 46.9358 28.5423 47.599 28.0527 48.0979Z" fill="#C0579B"/>
<path d="M47.4962 42.665C45.5667 40.6988 42.4271 40.699 40.4979 42.665C38.5684 44.631 38.5684 47.8298 40.4979 49.7958C41.4627 50.7789 42.7299 51.2702 43.9972 51.2702C45.2644 51.2702 46.5317 50.7789 47.4964 49.7958C49.4258 47.8298 49.4258 44.631 47.4962 42.665ZM45.8299 48.0979C44.8191 49.1278 43.1748 49.1276 42.1641 48.0979C41.1535 47.068 41.1535 45.3926 42.1641 44.3627C42.6695 43.8477 43.3333 43.5904 43.9971 43.5904C44.6609 43.5904 45.3246 43.8477 45.83 44.3627C46.8407 45.3926 46.8407 47.068 45.8299 48.0979Z" fill="#C0579B"/>
</svg>
