<svg width="82" height="80" viewBox="0 0 82 80" fill="none" xmlns="http://www.w3.org/2000/svg">
<path d="M14.7535 61.6502L10.05 74.476C9.45885 76.0881 11.0403 77.6467 12.6436 77.0321L24.9272 72.3236C25.2129 72.2141 25.4696 72.0405 25.6777 71.8162L32.7925 64.1459C33.2837 63.6164 34.0223 63.3928 34.7247 63.5611L35.7824 63.8145C36.5026 63.987 37.0684 64.5433 37.2532 65.2604L38.4357 69.85C38.6634 70.7335 39.4601 71.3509 40.3725 71.3509H44.2124C45.1989 71.3509 46.0381 70.6315 46.1889 69.6565L46.8863 65.145C46.9878 64.4884 47.4088 63.9251 48.0097 63.6416L51.8199 61.8445C52.5529 61.4988 53.4222 61.6296 54.0209 62.1758L56.4734 64.4131C57.2662 65.1362 58.4883 65.1049 59.243 64.3421L62.7314 60.8165C63.3976 60.1432 63.5001 59.0948 62.9769 58.3052L60.7184 54.8964C60.3538 54.3461 60.2842 53.6514 60.5324 53.0397L62.3169 48.6424C62.5867 47.9775 63.192 47.5082 63.903 47.4123L67.003 46.9946C67.9954 46.8609 68.7359 46.0138 68.7359 45.0125V39.9319C68.7359 38.9801 68.0651 38.1601 67.1322 37.9715L63.8447 37.307C63.1661 37.1698 62.6067 36.6914 62.3659 36.0424L61.677 34.1856C61.419 33.4903 61.5669 32.7093 62.0614 32.1566L80.2114 11.8647C80.9094 11.0844 80.8874 9.89784 80.1611 9.14383L72.8212 1.52386C72.0242 0.696485 70.6957 0.709002 69.9144 1.55124L52.0606 20.7991C51.5155 21.3867 50.6722 21.5922 49.9179 21.3211L48.7757 20.9106C48.162 20.6901 47.6943 20.1841 47.5226 19.5549L46.3289 15.1794C46.0916 14.3094 45.3013 13.7058 44.3995 13.7058H40.5217C39.5419 13.7058 38.7063 14.4157 38.548 15.3827L37.8596 19.588C37.7594 20.2002 37.3809 20.7312 36.8349 21.0255L32.9188 23.1364C32.1945 23.5268 31.305 23.4338 30.6772 22.9019L27.8957 20.5459C27.0985 19.8706 25.916 19.9227 25.1813 20.6653L21.6973 24.1865C21.0074 24.8838 20.925 25.9785 21.5027 26.7712L23.9405 30.116C24.3576 30.6884 24.4409 31.4386 24.1596 32.0885L22.4112 36.1275C22.1512 36.7282 21.6137 37.1637 20.9721 37.2934L17.6172 37.9715C16.6843 38.1601 16.0135 38.9801 16.0135 39.9319V45.0125C16.0135 46.0138 16.754 46.8609 17.7464 46.9946L20.91 47.4209C21.5867 47.5121 22.17 47.9421 22.4573 48.5615L23.3011 50.3808C23.6427 51.1173 23.5051 51.9872 22.953 52.5824L15.1649 60.9787C14.9846 61.173 14.8448 61.4013 14.7535 61.6502Z" fill="white"/>
<path d="M70.8539 13.7264L65.5229 8.33425C63.7387 6.52986 60.8358 6.52986 59.0515 8.33425C58.6373 8.7534 58.6373 9.43271 59.0515 9.85186C59.4659 10.2707 60.1376 10.2707 60.5518 9.85186C61.5088 8.88391 63.0654 8.88391 64.0226 9.85186L69.3537 15.2438C70.3106 16.2119 70.3106 17.7869 69.3538 18.7547L65.4914 22.6613L56.6892 13.7581L57.4559 12.9828C57.8703 12.5638 57.8703 11.8844 57.4561 11.4655C57.0418 11.0465 56.37 11.0463 55.9559 11.4653L41.48 26.1069C40.8042 25.8355 40.1154 25.5974 39.4135 25.3977L38.6116 19.683C38.5373 19.154 38.0896 18.7609 37.5612 18.7609H29.8014C29.2731 18.7609 28.8253 19.154 28.751 19.683L27.9491 25.3979C26.3478 25.8534 24.8093 26.4979 23.3592 27.3209L18.7967 23.8536C18.3745 23.5327 17.7829 23.575 17.4093 23.9527L11.9222 29.5025C11.5487 29.8804 11.5068 30.4786 11.8242 30.9058L15.2523 35.5207C14.4386 36.9872 13.8012 38.5433 13.3509 40.1631L7.70069 40.9744C7.17763 41.0495 6.78898 41.5024 6.78898 42.0368V49.8855C6.78898 50.4199 7.17763 50.8727 7.70069 50.9479L13.3513 51.759C13.5477 52.462 13.7824 53.1609 14.0529 53.8483L5.93146 62.0629C5.79225 62.2037 5.69703 62.3799 5.65161 62.5702L2.6863 71.0561L2.68616 71.0562L0.0606884 78.5697C-0.0755583 78.9594 0.021781 79.3935 0.310686 79.686C0.513146 79.8907 0.784366 80.0002 1.06096 80.0002C1.17938 80.0002 1.29879 79.9801 1.41438 79.9388L17.2324 74.2838C17.4162 74.2391 17.5907 74.1455 17.7341 74.0006L25.8441 65.7976C26.5364 66.0779 27.2403 66.3208 27.9488 66.5231L28.7509 72.2385C28.8252 72.7676 29.2729 73.1607 29.8012 73.1607H37.5611C38.0894 73.1607 38.537 72.7676 38.6114 72.2385L39.4133 66.5237C41.0146 66.0682 42.5531 65.4237 44.0033 64.6007L48.5659 68.0679C48.988 68.3888 49.5795 68.3464 49.9533 67.9689L55.4402 62.4188C55.8137 62.041 55.8555 61.4428 55.5381 61.0157L52.11 56.4009C52.9238 54.9339 53.5612 53.3778 54.0114 51.7583L59.6615 50.9472C60.1845 50.8721 60.5732 50.4193 60.5732 49.8848V42.036C60.5732 41.5018 60.1845 41.0489 59.6615 40.9736L54.0114 40.1624C53.8101 39.4387 53.5696 38.7285 53.2947 38.0324L70.8541 20.2719C72.638 18.4675 72.638 15.5312 70.8539 13.7264ZM2.8009 77.167L4.12588 73.3755L6.5496 75.827L2.8009 77.167ZM8.76647 75.0345L4.9094 71.1333L7.12642 64.7889L15.0391 72.792L8.76647 75.0345ZM58.4515 42.9678V48.9538L53.0155 49.7341C52.5861 49.7958 52.2371 50.1155 52.1341 50.5417C51.6751 52.4398 50.9343 54.249 49.9318 55.919C49.7067 56.294 49.7299 56.7696 49.9905 57.1203L53.2887 61.5602L49.1041 65.7929L44.7145 62.4569C44.3677 62.1933 43.8977 62.1698 43.5269 62.3975C41.8761 63.4114 40.0875 64.1608 38.2105 64.625C37.7891 64.7292 37.4731 65.0821 37.4121 65.5164L36.6406 71.0147H30.7224L29.9509 65.5164C29.8899 65.0821 29.5739 64.729 29.1525 64.625C28.5968 64.4875 28.0422 64.3221 27.4932 64.1299L33.2913 58.2655C33.4268 58.2705 33.5554 58.2731 33.6816 58.2731C40.3938 58.2731 45.8546 52.7497 45.8546 45.9606C45.8546 45.6631 45.8404 45.3691 45.8198 45.0767C45.8196 45.0743 45.8198 45.072 45.8196 45.0695C45.8191 45.0621 45.8181 45.0548 45.8175 45.0474C45.8042 44.8649 45.7875 44.6837 45.7664 44.5036C45.7663 44.5026 45.7661 44.5016 45.766 44.5006C45.0825 38.68 40.371 34.0941 34.5373 33.6818C34.527 33.6811 34.517 33.6797 34.5066 33.679C34.5044 33.6788 34.5022 33.679 34.5 33.6788C34.2292 33.6605 33.9568 33.6479 33.6815 33.6479C26.9693 33.6479 21.5086 39.1713 21.5086 45.9604C21.5086 46.071 21.5104 46.1836 21.5142 46.3017L19.8773 47.9574C19.8514 47.9835 19.8271 48.0107 19.8044 48.0389C19.6458 48.2357 19.5666 48.4758 19.5666 48.7162C19.5666 48.9909 19.6702 49.2655 19.8773 49.4748C19.9032 49.501 19.9301 49.5255 19.9579 49.5485C20.2634 49.8004 20.6754 49.8545 21.0267 49.7105C21.1545 49.6581 21.274 49.5796 21.3776 49.475L34.8349 35.8633C39.4275 36.3968 43.1091 40.1026 43.6585 44.7448L40.3375 48.1038C39.9232 48.5229 39.9232 49.2022 40.3375 49.6212C40.5448 49.8307 40.8163 49.9353 41.0876 49.9353C41.359 49.9353 41.6306 49.8306 41.8378 49.6212L43.5491 47.8902C42.7744 51.9512 39.6042 55.1577 35.5891 55.9415L38.8261 52.6676C39.2403 52.2484 39.2403 51.5691 38.8261 51.1501C38.4117 50.7313 37.74 50.7313 37.3258 51.1501C37.3256 51.1503 37.3258 51.1501 37.3256 51.1503L16.9841 71.7246L8.18187 62.8215L18.3654 52.5213C18.469 52.4166 18.5468 52.2955 18.5984 52.1664C18.6502 52.0372 18.6761 51.9 18.6761 51.7628C18.6761 51.4883 18.5726 51.2135 18.3654 51.004C18.2619 50.8993 18.1422 50.8207 18.0146 50.7685C17.6954 50.6375 17.3258 50.6703 17.0317 50.8666C16.9728 50.9059 16.9169 50.9518 16.8652 51.0042L15.7036 52.1789C15.5195 51.6367 15.3606 51.0896 15.2281 50.5418C15.1251 50.1158 14.776 49.7959 14.3468 49.7343L8.91078 48.9539V42.9679L14.3468 42.1874C14.776 42.1258 15.1251 41.8061 15.2281 41.3802C15.6872 39.4814 16.4281 37.6723 17.4304 36.0028C17.6555 35.6279 17.6323 35.1522 17.3717 34.8015L14.0733 30.3615L18.2582 26.1288L22.6478 29.4649C22.9946 29.7285 23.4648 29.7518 23.8355 29.5242C25.4863 28.5102 27.2751 27.7609 29.1518 27.2967C29.5732 27.1924 29.8891 26.8396 29.9502 26.4052L30.7217 20.9069H36.6399L37.4114 26.405C37.4724 26.8392 37.7884 27.1922 38.2095 27.2964C39.2702 27.5587 40.3011 27.9155 41.2965 28.3562C41.2977 28.3568 41.2989 28.3575 41.3001 28.3581C41.4941 28.4441 41.686 28.533 41.8757 28.6244C41.8792 28.6261 41.8828 28.6278 41.8863 28.6296C42.066 28.7164 42.2433 28.8059 42.4186 28.8972C42.4661 28.9221 42.5131 28.9481 42.5605 28.9734C42.6959 29.0456 42.8307 29.1183 42.9631 29.193C43.1524 29.3004 43.3404 29.41 43.5264 29.5241C43.619 29.5811 43.7181 29.6223 43.8196 29.6479C44.1245 29.725 44.4543 29.6622 44.7141 29.4646L49.1038 26.1286L53.2884 30.361L49.9902 34.801C49.8599 34.9763 49.789 35.1828 49.7787 35.3926C49.7685 35.6023 49.8189 35.8149 49.9315 36.0025C50.0434 36.1888 50.1507 36.3775 50.2561 36.5672C50.3267 36.6951 50.3953 36.8251 50.4636 36.9557C50.4912 37.0083 50.5192 37.0605 50.5462 37.1131C50.633 37.2829 50.7179 37.4543 50.8001 37.628C50.8037 37.6359 50.8076 37.6436 50.8112 37.6514C50.8995 37.8381 50.9855 38.0269 51.0685 38.2175C51.0692 38.2192 51.0703 38.2208 51.0711 38.2226C51.514 39.2402 51.8716 40.2949 52.1341 41.3801C52.2371 41.8062 52.586 42.1259 53.0155 42.1876L58.4515 42.9678ZM31.7069 35.9922L23.8256 43.9639C24.6179 39.9569 27.7454 36.7936 31.7069 35.9922ZM52.3446 35.9586C52.2679 35.8119 52.1905 35.6655 52.11 35.5204L55.538 30.9055C55.8552 30.4785 55.8135 29.8801 55.4401 29.5022L49.9532 23.9524C49.5794 23.5746 48.9878 23.5321 48.5658 23.8534L44.0031 27.3207C43.8479 27.2326 43.6913 27.1476 43.5341 27.0637L49.615 20.9133L58.4171 29.8163L52.3446 35.9586ZM59.9177 28.2989L51.1156 19.396L55.189 15.2758L63.9911 24.1789L59.9177 28.2989Z" fill="#F49500"/>
</svg>
