<svg width="84" height="80" viewBox="0 0 84 80" fill="none" xmlns="http://www.w3.org/2000/svg">
<ellipse cx="43.6367" cy="39.8207" rx="39.9999" ry="39.8207" fill="white"/>
<path d="M36.3636 7.59863C16.3127 7.59863 0 23.8382 0 43.7993C0 63.7603 16.3127 79.9999 36.3636 79.9999C56.4145 79.9999 72.7272 63.7603 72.7272 43.7993C72.7272 23.8382 56.4145 7.59863 36.3636 7.59863ZM36.3636 76.3786C18.3176 76.3786 3.63636 61.7632 3.63636 43.7981C3.63636 25.8329 18.3176 11.2175 36.3636 11.2175C54.4108 11.2175 69.0908 25.8329 69.0908 43.7981C69.0908 61.7632 54.4108 76.3786 36.3636 76.3786Z" fill="#1D97D5"/>
<path d="M13.2295 42.3913C13.2295 41.7252 12.6865 41.1846 12.0174 41.1846H5.55196C4.88287 41.1846 4.33984 41.7252 4.33984 42.3913C4.33984 43.0574 4.88287 43.5979 5.55196 43.5979H12.0174C12.6865 43.5979 13.2295 43.0574 13.2295 42.3913Z" fill="#1D97D5"/>
<path d="M57.8281 42.3913C57.8281 43.0574 58.3712 43.5979 59.0402 43.5979H65.5057C66.1748 43.5979 66.7178 43.0574 66.7178 42.3913C66.7178 41.7252 66.1748 41.1846 65.5057 41.1846H59.0402C58.3712 41.1846 57.8281 41.7252 57.8281 42.3913Z" fill="#1D97D5"/>
<path d="M35.6027 21.5999C36.2718 21.5999 36.8149 21.0593 36.8149 20.3932V13.9567C36.8149 13.2906 36.2718 12.75 35.6027 12.75C34.9337 12.75 34.3906 13.2906 34.3906 13.9567V20.3932C34.3906 21.0593 34.9337 21.5999 35.6027 21.5999Z" fill="#1D97D5"/>
<path d="M35.6027 65.9966C34.9337 65.9966 34.3906 66.5372 34.3906 67.2033V73.6397C34.3906 74.307 34.9337 74.8464 35.6027 74.8464C36.2718 74.8464 36.8149 74.307 36.8149 73.6397V67.2033C36.8149 66.5372 36.2718 65.9966 35.6027 65.9966Z" fill="#1D97D5"/>
<path d="M12.02 31.0273C12.8012 31.0273 13.4346 30.3969 13.4346 29.6191C13.4346 28.8414 12.8012 28.2109 12.02 28.2109C11.2388 28.2109 10.6055 28.8414 10.6055 29.6191C10.6055 30.3969 11.2388 31.0273 12.02 31.0273Z" fill="#1D97D5"/>
<path d="M60.4536 31.0273C61.2348 31.0273 61.8682 30.3969 61.8682 29.6191C61.8682 28.8414 61.2348 28.2109 60.4536 28.2109C59.6724 28.2109 59.0391 28.8414 59.0391 29.6191C59.0391 30.3969 59.6724 31.0273 60.4536 31.0273Z" fill="#1D97D5"/>
<path d="M21.2114 19.9917C21.9926 19.9917 22.626 19.3612 22.626 18.5835C22.626 17.8058 21.9926 17.1753 21.2114 17.1753C20.4302 17.1753 19.7969 17.8058 19.7969 18.5835C19.7969 19.3612 20.4302 19.9917 21.2114 19.9917Z" fill="#1D97D5"/>
<path d="M50.0005 19.9917C50.7817 19.9917 51.415 19.3612 51.415 18.5835C51.415 17.8058 50.7817 17.1753 50.0005 17.1753C49.2193 17.1753 48.5859 17.8058 48.5859 18.5835C48.5859 19.3612 49.2193 19.9917 50.0005 19.9917Z" fill="#1D97D5"/>
<path d="M12.1489 59.3843C12.9301 59.3843 13.5635 58.7538 13.5635 57.9761C13.5635 57.1983 12.9301 56.5679 12.1489 56.5679C11.3677 56.5679 10.7344 57.1983 10.7344 57.9761C10.7344 58.7538 11.3677 59.3843 12.1489 59.3843Z" fill="#1D97D5"/>
<path d="M60.5786 59.3843C61.3598 59.3843 61.9931 58.7538 61.9931 57.9761C61.9931 57.1983 61.3598 56.5679 60.5786 56.5679C59.7974 56.5679 59.1641 57.1983 59.1641 57.9761C59.1641 58.7538 59.7974 59.3843 60.5786 59.3843Z" fill="#1D97D5"/>
<path d="M21.3403 70.4229C22.1216 70.4229 22.7549 69.7924 22.7549 69.0146C22.7549 68.2369 22.1216 67.6064 21.3403 67.6064C20.5591 67.6064 19.9258 68.2369 19.9258 69.0146C19.9258 69.7924 20.5591 70.4229 21.3403 70.4229Z" fill="#1D97D5"/>
<path d="M50.1255 70.4229C50.9067 70.4229 51.54 69.7924 51.54 69.0146C51.54 68.2369 50.9067 67.6064 50.1255 67.6064C49.3443 67.6064 48.7109 68.2369 48.7109 69.0146C48.7109 69.7924 49.3443 70.4229 50.1255 70.4229Z" fill="#1D97D5"/>
<path d="M31.7844 22.1386C31.5663 21.5087 30.8766 21.1733 30.2438 21.3893C29.6111 21.6065 29.2741 22.2919 29.4911 22.923L36.7869 44.0545L20.6705 59.7028C20.1905 60.1674 20.182 60.9324 20.6499 61.4079C20.8875 61.6504 21.2014 61.7723 21.5178 61.7723C21.8233 61.7723 22.1287 61.6589 22.3639 61.4308L39.0305 45.2503C39.3663 44.9233 39.4826 44.4358 39.3311 43.9941L31.7844 22.1386Z" fill="#1D97D5"/>
</svg>
